<svg xmlns="http://www.w3.org/2000/svg" xmlns:xlink="http://www.w3.org/1999/xlink" contentStyleType="text/css" data-diagram-type="DESCRIPTION" height="1207px" preserveAspectRatio="none" style="width:2379px;height:1207px;background:#FFFFFF;" version="1.1" viewBox="0 0 2379 1207" width="2379px" zoomAndPan="magnify"><?plantuml 1.2026.6?><defs/><g><g class="title" data-source-line="2"><text fill="#000000" font-family="sans-serif" font-size="14" font-weight="700" lengthAdjust="spacing" textLength="153.9658" x="1109.2395" y="23.5352">Skill Planes Overview</text></g><!--cluster n_plane_workflow--><g class="cluster" data-qualified-name="n_plane_workflow" data-source-line="12" id="ent0001"><rect fill="#F8FAFC" height="440.53" rx="2.5" ry="2.5" style="stroke:#475569;stroke-width:1;" width="502" x="249" y="44.4883"/><text fill="#000000" font-family="sans-serif" font-size="14" font-style="italic" lengthAdjust="spacing" textLength="56.916" x="471.542" y="60.0234">&#171;kernel&#187;</text><text fill="#000000" font-family="sans-serif" font-size="14" font-weight="700" lengthAdjust="spacing" textLength="268.0439" x="365.978" y="76.5117">Sovereign Harness Kernel (workflow)</text></g><!--cluster n_plane_session--><g class="cluster" data-qualified-name="n_plane_session" data-source-line="22" id="ent0009"><rect fill="#F8FAFC" height="103.49" rx="2.5" ry="2.5" style="stroke:#475569;stroke-width:1;" width="355" x="878" y="213.0383"/><text fill="#000000" font-family="sans-serif" font-size="14" font-weight="700" lengthAdjust="spacing" textLength="98.1025" x="1006.4487" y="228.5734">Session Plane</text></g><!--cluster n_plane_review_component--><g class="cluster" data-qualified-name="n_plane_review_component" data-source-line="27" id="ent0012"><rect fill="#F8FAFC" height="271.98" rx="2.5" ry="2.5" style="stroke:#475569;stroke-width:1;" width="398" x="839" y="381.5283"/><text fill="#000000" font-family="sans-serif" font-size="14" font-weight="700" lengthAdjust="spacing" textLength="274.3467" x="900.8267" y="397.0634">Evaluation Plane (review components)</text></g><!--cluster n_plane_discipline--><g class="cluster" data-qualified-name="n_plane_discipline" data-source-line="33" id="ent0016"><rect fill="#F8FAFC" height="390.46" rx="2.5" ry="2.5" style="stroke:#475569;stroke-width:1;" width="916" x="1324" y="550.0183"/><text fill="#000000" font-family="sans-serif" font-size="14" font-weight="700" lengthAdjust="spacing" textLength="114.7344" x="1724.6328" y="565.5534">Discipline Plane</text></g><!--cluster n_plane_policy--><g class="cluster" data-qualified-name="n_plane_policy" data-source-line="47" id="ent0028"><rect fill="#F8FAFC" height="390.46" rx="2.5" ry="2.5" style="stroke:#475569;stroke-width:1;" width="768" x="7" y="702.5083"/><text fill="#000000" font-family="sans-serif" font-size="14" font-weight="700" lengthAdjust="spacing" textLength="85.627" x="348.1865" y="718.0434">Policy Plane</text></g><!--cluster n_plane_tool--><g class="cluster" data-qualified-name="n_plane_tool" data-source-line="61" id="ent0040"><rect fill="#F8FAFC" height="255.98" rx="2.5" ry="2.5" style="stroke:#475569;stroke-width:1;" width="469" x="815" y="836.9883"/><text fill="#000000" font-family="sans-serif" font-size="14" font-weight="700" lengthAdjust="spacing" textLength="75.4756" x="1011.7622" y="852.5234">Tool Plane</text></g><!--cluster n_plane_manual_tool--><g class="cluster" data-qualified-name="n_plane_manual_tool" data-source-line="68" id="ent0045"><rect fill="#F8FAFC" height="103.49" rx="2.5" ry="2.5" style="stroke:#475569;stroke-width:1;" width="331" x="1943" y="989.4783"/><text fill="#000000" font-family="sans-serif" font-size="14" font-weight="700" lengthAdjust="spacing" textLength="295.4629" x="1960.7686" y="1005.0134">Manual Tools (explicit user request only)</text></g><!--entity n_analyze_project--><g class="entity" data-qualified-name="n_plane_workflow.n_analyze_project" data-source-line="13" id="ent0002"><rect fill="#F8FAFC" height="36.4883" rx="2.5" ry="2.5" style="stroke:#475569;stroke-width:0.5;" width="127.0439" x="277.48" y="103.4883"/><text fill="#000000" font-family="sans-serif" font-size="14" lengthAdjust="spacing" textLength="107.0439" x="287.48" y="127.0234">analyze-project</text></g><!--entity n_close_change--><g class="entity" data-qualified-name="n_plane_workflow.n_close_change" data-source-line="14" id="ent0003"><rect fill="#F8FAFC" height="36.4883" rx="2.5" ry="2.5" style="stroke:#475569;stroke-width:0.5;" width="111.6631" x="439.17" y="103.4883"/><text fill="#000000" font-family="sans-serif" font-size="14" lengthAdjust="spacing" textLength="91.6631" x="449.17" y="127.0234">close-change</text></g><!--entity n_design_change--><g class="entity" data-qualified-name="n_plane_workflow.n_design_change" data-source-line="15" id="ent0004"><rect fill="#F8FAFC" height="36.4883" rx="2.5" ry="2.5" style="stroke:#475569;stroke-width:0.5;" width="122.1221" x="585.94" y="103.4883"/><text fill="#000000" font-family="sans-serif" font-size="14" lengthAdjust="spacing" textLength="102.1221" x="595.94" y="127.0234">design-change</text></g><!--entity n_implement_change--><g class="entity" data-qualified-name="n_plane_workflow.n_implement_change" data-source-line="16" id="ent0005"><rect fill="#F8FAFC" height="36.4883" rx="2.5" ry="2.5" style="stroke:#475569;stroke-width:0.5;" width="149.4795" x="273.26" y="256.0383"/><text fill="#000000" font-family="sans-serif" font-size="14" lengthAdjust="spacing" textLength="129.4795" x="283.26" y="279.5734">implement-change</text></g><!--entity n_plan_change--><g class="entity" data-qualified-name="n_plane_workflow.n_plan_change" data-source-line="17" id="ent0006"><rect fill="#F8FAFC" height="36.4883" rx="2.5" ry="2.5" style="stroke:#475569;stroke-width:0.5;" width="106.1875" x="457.91" y="256.0383"/><text fill="#000000" font-family="sans-serif" font-size="14" lengthAdjust="spacing" textLength="86.1875" x="467.91" y="279.5734">plan-change</text></g><!--entity n_review_change--><g class="entity" data-qualified-name="n_plane_workflow.n_review_change" data-source-line="18" id="ent0007"><rect fill="#F8FAFC" height="36.4883" rx="2.5" ry="2.5" style="stroke:#475569;stroke-width:0.5;" width="120.3174" x="598.84" y="256.0383"/><text fill="#000000" font-family="sans-serif" font-size="14" lengthAdjust="spacing" textLength="100.3174" x="608.84" y="279.5734">review-change</text></g><!--entity n_sync_truth--><g class="entity" data-qualified-name="n_plane_workflow.n_sync_truth" data-source-line="19" id="ent0008"><rect fill="#F8FAFC" height="36.4883" rx="2.5" ry="2.5" style="stroke:#475569;stroke-width:0.5;" width="91.9893" x="292.01" y="424.5283"/><text fill="#000000" font-family="sans-serif" font-size="14" lengthAdjust="spacing" textLength="71.9893" x="302.01" y="448.0634">sync-truth</text></g><!--entity n_output_styles--><g class="entity" data-qualified-name="n_plane_session.n_output_styles" data-source-line="23" id="ent0010"><rect fill="#F8FAFC" height="36.4883" rx="2.5" ry="2.5" style="stroke:#475569;stroke-width:0.5;" width="112.0322" x="901.98" y="256.0383"/><text fill="#000000" font-family="sans-serif" font-size="14" lengthAdjust="spacing" textLength="92.0322" x="911.98" y="279.5734">output-styles</text></g><!--entity n_use_coding_skills--><g class="entity" data-qualified-name="n_plane_session.n_use_coding_skills" data-source-line="24" id="ent0011"><rect fill="#F8FAFC" height="36.4883" rx="2.5" ry="2.5" style="stroke:#475569;stroke-width:0.5;" width="140.4697" x="1048.77" y="256.0383"/><text fill="#000000" font-family="sans-serif" font-size="14" lengthAdjust="spacing" textLength="120.4697" x="1058.77" y="279.5734">use-coding-skills</text></g><!--entity n_review_design--><g class="entity" data-qualified-name="n_plane_review_component.n_review_design" data-source-line="28" id="ent0013"><rect fill="#F8FAFC" height="36.4883" rx="2.5" ry="2.5" style="stroke:#475569;stroke-width:0.5;" width="116.7217" x="862.64" y="424.5283"/><text fill="#000000" font-family="sans-serif" font-size="14" lengthAdjust="spacing" textLength="96.7217" x="872.64" y="448.0634">review-design</text></g><!--entity n_review_implementation--><g class="entity" data-qualified-name="n_plane_review_component.n_review_implementation" data-source-line="29" id="ent0014"><rect fill="#F8FAFC" height="36.4883" rx="2.5" ry="2.5" style="stroke:#475569;stroke-width:0.5;" width="178.3818" x="1014.81" y="424.5283"/><text fill="#000000" font-family="sans-serif" font-size="14" lengthAdjust="spacing" textLength="158.3818" x="1024.81" y="448.0634">review-implementation</text></g><!--entity n_review_plan--><g class="entity" data-qualified-name="n_plane_review_component.n_review_plan" data-source-line="30" id="ent0015"><rect fill="#F8FAFC" height="36.4883" rx="2.5" ry="2.5" style="stroke:#475569;stroke-width:0.5;" width="100.7871" x="870.61" y="593.0183"/><text fill="#000000" font-family="sans-serif" font-size="14" lengthAdjust="spacing" textLength="80.7871" x="880.61" y="616.5534">review-plan</text></g><!--entity n_api_contract_strategy--><g class="entity" data-qualified-name="n_plane_discipline.n_api_contract_strategy" data-source-line="34" id="ent0017"><rect fill="#F8FAFC" height="36.4883" rx="2.5" ry="2.5" style="stroke:#475569;stroke-width:0.5;" width="167.2666" x="1407.37" y="593.0183"/><text fill="#000000" font-family="sans-serif" font-size="14" lengthAdjust="spacing" textLength="147.2666" x="1417.37" y="616.5534">api-contract-strategy</text></g><!--entity n_architecture_patterns--><g class="entity" data-qualified-name="n_plane_discipline.n_architecture_patterns" data-source-line="35" id="ent0018"><rect fill="#F8FAFC" height="36.4883" rx="2.5" ry="2.5" style="stroke:#475569;stroke-width:0.5;" width="165.4961" x="1609.25" y="593.0183"/><text fill="#000000" font-family="sans-serif" font-size="14" lengthAdjust="spacing" textLength="145.4961" x="1619.25" y="616.5534">architecture-patterns</text></g><!--entity n_clean_architecture--><g class="entity" data-qualified-name="n_plane_discipline.n_clean_architecture" data-source-line="36" id="ent0019"><rect fill="#F8FAFC" height="36.4883" rx="2.5" ry="2.5" style="stroke:#475569;stroke-width:0.5;" width="144.5645" x="1809.72" y="593.0183"/><text fill="#000000" font-family="sans-serif" font-size="14" lengthAdjust="spacing" textLength="124.5645" x="1819.72" y="616.5534">clean-architecture</text></g><!--entity n_error_patterns--><g class="entity" data-qualified-name="n_plane_discipline.n_error_patterns" data-source-line="37" id="ent0020"><rect fill="#F8FAFC" height="36.4883" rx="2.5" ry="2.5" style="stroke:#475569;stroke-width:0.5;" width="118.0547" x="1988.97" y="593.0183"/><text fill="#000000" font-family="sans-serif" font-size="14" lengthAdjust="spacing" textLength="98.0547" x="1998.97" y="616.5534">error-patterns</text></g><!--entity n_executable_oracle_architecture_selector--><g class="entity" data-qualified-name="n_plane_discipline.n_executable_oracle_architecture_selector" data-source-line="38" id="ent0021"><rect fill="#F8FAFC" height="36.4883" rx="2.5" ry="2.5" style="stroke:#475569;stroke-width:0.5;" width="293.5947" x="1356.2" y="745.5083"/><text fill="#000000" font-family="sans-serif" font-size="14" lengthAdjust="spacing" textLength="273.5947" x="1366.2" y="769.0434">executable-oracle-architecture-selector</text></g><!--entity n_infrastructure_triage--><g class="entity" data-qualified-name="n_plane_discipline.n_infrastructure_triage" data-source-line="39" id="ent0022"><rect fill="#F8FAFC" height="36.4883" rx="2.5" ry="2.5" style="stroke:#475569;stroke-width:0.5;" width="160.1299" x="1684.94" y="745.5083"/><text fill="#000000" font-family="sans-serif" font-size="14" lengthAdjust="spacing" textLength="140.1299" x="1694.94" y="769.0434">infrastructure-triage</text></g><!--entity n_language_decision_tree--><g class="entity" data-qualified-name="n_plane_discipline.n_language_decision_tree" data-source-line="40" id="ent0023"><rect fill="#F8FAFC" height="36.4883" rx="2.5" ry="2.5" style="stroke:#475569;stroke-width:0.5;" width="181.2119" x="1880.39" y="745.5083"/><text fill="#000000" font-family="sans-serif" font-size="14" lengthAdjust="spacing" textLength="161.2119" x="1890.39" y="769.0434">language-decision-tree</text></g><!--entity n_organize_docs--><g class="entity" data-qualified-name="n_plane_discipline.n_organize_docs" data-source-line="41" id="ent0024"><rect fill="#F8FAFC" height="36.4883" rx="2.5" ry="2.5" style="stroke:#475569;stroke-width:0.5;" width="119.1689" x="2096.42" y="745.5083"/><text fill="#000000" font-family="sans-serif" font-size="14" lengthAdjust="spacing" textLength="99.1689" x="2106.42" y="769.0434">organize-docs</text></g><!--entity n_skill_miner--><g class="entity" data-qualified-name="n_plane_discipline.n_skill_miner" data-source-line="42" id="ent0025"><rect fill="#F8FAFC" height="36.4883" rx="2.5" ry="2.5" style="stroke:#475569;stroke-width:0.5;" width="94.8945" x="1455.55" y="879.9883"/><text fill="#000000" font-family="sans-serif" font-size="14" lengthAdjust="spacing" textLength="74.8945" x="1465.55" y="903.5234">skill-miner</text></g><!--entity n_testing_strategy--><g class="entity" data-qualified-name="n_plane_discipline.n_testing_strategy" data-source-line="43" id="ent0026"><rect fill="#F8FAFC" height="36.4883" rx="2.5" ry="2.5" style="stroke:#475569;stroke-width:0.5;" width="129.8877" x="1585.06" y="879.9883"/><text fill="#000000" font-family="sans-serif" font-size="14" lengthAdjust="spacing" textLength="109.8877" x="1595.06" y="903.5234">testing-strategy</text></g><!--entity n_tool_decision_tree--><g class="entity" data-qualified-name="n_plane_discipline.n_tool_decision_tree" data-source-line="44" id="ent0027"><rect fill="#F8FAFC" height="36.4883" rx="2.5" ry="2.5" style="stroke:#475569;stroke-width:0.5;" width="145.5488" x="1750.23" y="879.9883"/><text fill="#000000" font-family="sans-serif" font-size="14" lengthAdjust="spacing" textLength="125.5488" x="1760.23" y="903.5234">tool-decision-tree</text></g><!--entity n_development_standards--><g class="entity" data-qualified-name="n_plane_policy.n_development_standards" data-source-line="48" id="ent0029"><rect fill="#F8FAFC" height="36.4883" rx="2.5" ry="2.5" style="stroke:#475569;stroke-width:0.5;" width="183.0234" x="62.49" y="745.5083"/><text fill="#000000" font-family="sans-serif" font-size="14" lengthAdjust="spacing" textLength="163.0234" x="72.49" y="769.0434">development-standards</text></g><!--entity n_go_guidelines--><g class="entity" data-qualified-name="n_plane_policy.n_go_guidelines" data-source-line="49" id="ent0030"><rect fill="#F8FAFC" height="36.4883" rx="2.5" ry="2.5" style="stroke:#475569;stroke-width:0.5;" width="115.2246" x="280.39" y="745.5083"/><text fill="#000000" font-family="sans-serif" font-size="14" lengthAdjust="spacing" textLength="95.2246" x="290.39" y="769.0434">go-guidelines</text></g><!--entity n_logging_standards--><g class="entity" data-qualified-name="n_plane_policy.n_logging_standards" data-source-line="50" id="ent0031"><rect fill="#F8FAFC" height="36.4883" rx="2.5" ry="2.5" style="stroke:#475569;stroke-width:0.5;" width="146.6836" x="430.66" y="745.5083"/><text fill="#000000" font-family="sans-serif" font-size="14" lengthAdjust="spacing" textLength="126.6836" x="440.66" y="769.0434">logging-standards</text></g><!--entity n_lua_guidelines--><g class="entity" data-qualified-name="n_plane_policy.n_lua_guidelines" data-source-line="51" id="ent0032"><rect fill="#F8FAFC" height="36.4883" rx="2.5" ry="2.5" style="stroke:#475569;stroke-width:0.5;" width="118.3623" x="612.82" y="745.5083"/><text fill="#000000" font-family="sans-serif" font-size="14" lengthAdjust="spacing" textLength="98.3623" x="622.82" y="769.0434">lua-guidelines</text></g><!--entity n_powershell_guidelines--><g class="entity" data-qualified-name="n_plane_policy.n_powershell_guidelines" data-source-line="52" id="ent0033"><rect fill="#F8FAFC" height="36.4883" rx="2.5" ry="2.5" style="stroke:#475569;stroke-width:0.5;" width="171.3408" x="31.33" y="879.9883"/><text fill="#000000" font-family="sans-serif" font-size="14" lengthAdjust="spacing" textLength="151.3408" x="41.33" y="903.5234">powershell-guidelines</text></g><!--entity n_python_guidelines--><g class="entity" data-qualified-name="n_plane_policy.n_python_guidelines" data-source-line="53" id="ent0034"><rect fill="#F8FAFC" height="36.4883" rx="2.5" ry="2.5" style="stroke:#475569;stroke-width:0.5;" width="145.2344" x="237.38" y="879.9883"/><text fill="#000000" font-family="sans-serif" font-size="14" lengthAdjust="spacing" textLength="125.2344" x="247.38" y="903.5234">python-guidelines</text></g><!--entity n_quality_standards--><g class="entity" data-qualified-name="n_plane_policy.n_quality_standards" data-source-line="54" id="ent0035"><rect fill="#F8FAFC" height="36.4883" rx="2.5" ry="2.5" style="stroke:#475569;stroke-width:0.5;" width="140.9893" x="417.51" y="879.9883"/><text fill="#000000" font-family="sans-serif" font-size="14" lengthAdjust="spacing" textLength="120.9893" x="427.51" y="903.5234">quality-standards</text></g><!--entity n_security_guardrails--><g class="entity" data-qualified-name="n_plane_policy.n_security_guardrails" data-source-line="55" id="ent0036"><rect fill="#F8FAFC" height="36.4883" rx="2.5" ry="2.5" style="stroke:#475569;stroke-width:0.5;" width="149.6025" x="593.2" y="879.9883"/><text fill="#000000" font-family="sans-serif" font-size="14" lengthAdjust="spacing" textLength="129.6025" x="603.2" y="903.5234">security-guardrails</text></g><!--entity n_security_logging--><g class="entity" data-qualified-name="n_plane_policy.n_security_logging" data-source-line="56" id="ent0037"><rect fill="#F8FAFC" height="36.4883" rx="2.5" ry="2.5" style="stroke:#475569;stroke-width:0.5;" width="132.793" x="50.6" y="1032.4783"/><text fill="#000000" font-family="sans-serif" font-size="14" lengthAdjust="spacing" textLength="112.793" x="60.6" y="1056.0134">security-logging</text></g><!--entity n_shell_guidelines--><g class="entity" data-qualified-name="n_plane_policy.n_shell_guidelines" data-source-line="57" id="ent0038"><rect fill="#F8FAFC" height="36.4883" rx="2.5" ry="2.5" style="stroke:#475569;stroke-width:0.5;" width="129.6143" x="218.19" y="1032.4783"/><text fill="#000000" font-family="sans-serif" font-size="14" lengthAdjust="spacing" textLength="109.6143" x="228.19" y="1056.0134">shell-guidelines</text></g><!--entity n_sops_age_guardrails--><g class="entity" data-qualified-name="n_plane_policy.n_sops_age_guardrails" data-source-line="58" id="ent0039"><rect fill="#F8FAFC" height="36.4883" rx="2.5" ry="2.5" style="stroke:#475569;stroke-width:0.5;" width="160.5264" x="382.74" y="1032.4783"/><text fill="#000000" font-family="sans-serif" font-size="14" lengthAdjust="spacing" textLength="140.5264" x="392.74" y="1056.0134">sops-age-guardrails</text></g><!--entity n_codex_session_recovery--><g class="entity" data-qualified-name="n_plane_tool.n_codex_session_recovery" data-source-line="62" id="ent0041"><rect fill="#F8FAFC" height="36.4883" rx="2.5" ry="2.5" style="stroke:#475569;stroke-width:0.5;" width="185.1016" x="839.45" y="879.9883"/><text fill="#000000" font-family="sans-serif" font-size="14" lengthAdjust="spacing" textLength="165.1016" x="849.45" y="903.5234">codex-session-recovery</text></g><!--entity n_docker_multiarch_build--><g class="entity" data-qualified-name="n_plane_tool.n_docker_multiarch_build" data-source-line="63" id="ent0042"><rect fill="#F8FAFC" height="36.4883" rx="2.5" ry="2.5" style="stroke:#475569;stroke-width:0.5;" width="181.3076" x="1059.35" y="879.9883"/><text fill="#000000" font-family="sans-serif" font-size="14" lengthAdjust="spacing" textLength="161.3076" x="1069.35" y="903.5234">docker-multiarch-build</text></g><!--entity n_smart_commit--><g class="entity" data-qualified-name="n_plane_tool.n_smart_commit" data-source-line="64" id="ent0043"><rect fill="#F8FAFC" height="36.4883" rx="2.5" ry="2.5" style="stroke:#475569;stroke-width:0.5;" width="118.1982" x="872.9" y="1032.4783"/><text fill="#000000" font-family="sans-serif" font-size="14" lengthAdjust="spacing" textLength="98.1982" x="882.9" y="1056.0134">smart-commit</text></g><!--entity n_web_fetch--><g class="entity" data-qualified-name="n_plane_tool.n_web_fetch" data-source-line="65" id="ent0044"><rect fill="#F8FAFC" height="36.4883" rx="2.5" ry="2.5" style="stroke:#475569;stroke-width:0.5;" width="89.542" x="1026.23" y="1032.4783"/><text fill="#000000" font-family="sans-serif" font-size="14" lengthAdjust="spacing" textLength="69.542" x="1036.23" y="1056.0134">web-fetch</text></g><!--entity n_git_worktrees--><g class="entity" data-qualified-name="n_plane_manual_tool.n_git_worktrees" data-source-line="69" id="ent0046"><rect fill="#F8FAFC" height="36.4883" rx="2.5" ry="2.5" style="stroke:#475569;stroke-width:0.5;" width="113.1123" x="1967.44" y="1032.4783"/><text fill="#000000" font-family="sans-serif" font-size="14" lengthAdjust="spacing" textLength="93.1123" x="1977.44" y="1056.0134">git-worktrees</text></g><!--entity n_smart_squash--><g class="entity" data-qualified-name="n_plane_manual_tool.n_smart_squash" data-source-line="70" id="ent0047"><rect fill="#F8FAFC" height="36.4883" rx="2.5" ry="2.5" style="stroke:#475569;stroke-width:0.5;" width="115.1973" x="2115.4" y="1032.4783"/><text fill="#000000" font-family="sans-serif" font-size="14" lengthAdjust="spacing" textLength="95.1973" x="2125.4" y="1056.0134">smart-squash</text></g><g class="entity" data-qualified-name="ownership_note" data-source-line="88" id="ent0060"><path d="M777.88,101.4183 L777.88,142.0394 L1140.1237,142.0394 L1140.1237,111.4183 L1130.1237,101.4183 L777.88,101.4183" fill="#FEFFDD" style="stroke:#181818;stroke-width:0.5;"/><path d="M1130.1237,101.4183 L1130.1237,111.4183 L1140.1237,111.4183 L1130.1237,101.4183" fill="#FEFFDD" style="stroke:#181818;stroke-width:1;"/><text fill="#000000" font-family="sans-serif" font-size="13" lengthAdjust="spacing" textLength="250.4722" x="783.88" y="118.9866">Only workflow skills own lifecycle state.</text><text fill="#000000" font-family="sans-serif" font-size="13" lengthAdjust="spacing" textLength="341.2437" x="783.88" y="134.2972">Lower planes contribute methods, evidence, or policy.</text></g><!--link n_plane_workflow to n_plane_session--><!--link n_plane_workflow to n_plane_session--><g class="link" data-entity-1="ent0001" data-entity-2="ent0009" data-link-type="dependency" data-source-line="80" id="lnk54"><path d="M751.0323,134.5352 C751.1425,134.661 751.2536,134.7867 751.3657,134.912 C751.5899,135.1627 751.8178,135.4124 752.0494,135.6603 C752.5125,136.1563 752.9904,136.6456 753.482,137.1238 C755.4488,139.0364 757.6375,140.7708 760,142.0383 C896.38,215.1683 951.15,172.4183 1105,189.0383 C1116.08,190.2383 1196.45,189.8783 1205,197.0383 C1208.2525,199.762 1211.0106,202.9442 1213.3464,206.4339 C1214.5143,208.1787 1215.5766,210.0004 1216.5423,211.8801 C1216.663,212.115 1216.7822,212.3509 1216.9,212.5876 C1216.9588,212.706 1214.8202,208.3332 1214.8783,208.452" fill="none" id="n_plane_workflow-to-n_plane_session-1" style="stroke:#475569;stroke-width:1;stroke-dasharray:7,7;"/><polygon fill="#475569" points="1217.0754,212.9434,1216.7137,203.1012,1214.8783,208.452,1209.5275,206.6165,1217.0754,212.9434" style="stroke:#475569;stroke-width:1;stroke-linejoin:miter;stroke-miterlimit:10;"/><text fill="#000000" font-family="sans-serif" font-size="13" lengthAdjust="spacing" textLength="63.4448" x="1106" y="185.6066">composes</text></g><!--link n_plane_session to n_plane_review_component--><!--link n_plane_review_component to n_plane_discipline--><!--link n_plane_discipline to n_plane_policy--><!--link n_plane_policy to n_plane_tool--><!--link n_plane_tool to n_plane_manual_tool--><!--link n_plane_workflow to n_plane_review_component--><g class="link" data-entity-1="ent0001" data-entity-2="ent0012" data-link-type="dependency" data-source-line="81" id="lnk55"><path d="M751.0363,198.92 C751.5723,201.6377 752.144,204.389 752.7538,207.167 C762.51,251.6158 782.015,302.9033 821,332.5283 C889.9,384.8883 1142.79,309.8083 1209,365.5283 C1212.2463,368.2595 1214.9995,371.4473 1217.3316,374.9411 C1218.4977,376.688 1219.5585,378.5113 1220.5229,380.3923 C1220.6435,380.6275 1220.7625,380.8635 1220.8801,381.1004 C1220.9389,381.2188 1218.8035,376.8444 1218.8616,376.9633" fill="none" id="n_plane_workflow-to-n_plane_review_component" style="stroke:#475569;stroke-width:1;stroke-dasharray:7,7;"/><polygon fill="#475569" points="1221.0553,381.4564,1220.701,371.6139,1218.8616,376.9633,1213.5121,375.1239,1221.0553,381.4564" style="stroke:#475569;stroke-width:1;stroke-linejoin:miter;stroke-miterlimit:10;"/><text fill="#000000" font-family="sans-serif" font-size="13" lengthAdjust="spacing" textLength="63.4448" x="822" y="279.3466">composes</text></g><!--link n_plane_workflow to n_plane_discipline--><g class="link" data-entity-1="ent0001" data-entity-2="ent0016" data-link-type="dependency" data-source-line="82" id="lnk56"><path d="M751.0147,134.8302 C751.0424,134.8617 751.0701,134.8931 751.0979,134.9245 C751.1535,134.9872 751.2094,135.0499 751.2654,135.1125 C751.4898,135.3629 751.7181,135.6117 751.9503,135.8585 C752.4146,136.3521 752.8945,136.8373 753.3892,137.3094 C755.3681,139.1977 757.585,140.8758 760,142.0383 C821.64,171.7283 1327.82,122.4983 1375,172.0383 C1379.36,176.6083 1374.06,498.4983 1373,501.0183 C1364.95,520.1283 1348.93,515.2883 1340,534.0183 C1338.2238,537.742 1336.7603,541.6819 1335.56,545.7309 C1335.2599,546.7431 1334.9763,547.7622 1334.7083,548.7864 C1334.6413,549.0425 1334.5753,549.2989 1334.5102,549.5555 C1334.4777,549.6839 1335.6553,544.9609 1335.6233,545.0894" fill="none" id="n_plane_workflow-to-n_plane_discipline" style="stroke:#475569;stroke-width:1;stroke-dasharray:7,7;"/><polygon fill="#475569" points="1334.4134,549.9408,1340.4723,542.1761,1335.6233,545.0894,1332.71,540.2403,1334.4134,549.9408" style="stroke:#475569;stroke-width:1;stroke-linejoin:miter;stroke-miterlimit:10;"/><text fill="#000000" font-family="sans-serif" font-size="13" lengthAdjust="spacing" textLength="63.4448" x="1376.99" y="354.0966">composes</text></g><!--link n_plane_workflow to n_plane_policy--><g class="link" data-entity-1="ent0001" data-entity-2="ent0028" data-link-type="dependency" data-source-line="83" id="lnk57"><path d="M751.0349,134.7968 C751.0625,134.8282 751.0903,134.8596 751.1181,134.891 C751.1736,134.9538 751.2295,135.0165 751.2855,135.0791 C751.5098,135.3295 751.738,135.5785 751.97,135.8255 C752.4341,136.3195 752.9134,136.8054 753.4075,137.2784 C755.3838,139.1708 757.595,140.8583 760,142.0383 C854.35,188.3383 1130.64,144.2483 1232,172.0383 C1255.58,178.5083 1268.23,176.1883 1281,197.0383 C1314.56,251.8483 1240.07,638.5083 1209,669.5083 C1173.74,704.6733 1064.685,727.8958 963.7312,742.3708 C913.2544,749.6083 864.8028,754.6589 828.6136,757.922 C810.519,759.5536 795.49,760.7383 784.8062,761.526 C782.1352,761.7229 779.7358,761.8951 777.628,762.0432 C777.1011,762.0802 776.5923,762.1157 776.1021,762.1497 C775.857,762.1668 780.6047,761.8392 780.3689,761.8554" fill="none" id="n_plane_workflow-to-n_plane_policy" style="stroke:#475569;stroke-width:1;stroke-dasharray:7,7;"/><polygon fill="#475569" points="775.3808,762.1997,784.6348,765.5705,780.3689,761.8554,784.084,757.5895,775.3808,762.1997" style="stroke:#475569;stroke-width:1;stroke-linejoin:miter;stroke-miterlimit:10;"/><text fill="#000000" font-family="sans-serif" font-size="13" lengthAdjust="spacing" textLength="63.4448" x="1281.58" y="447.8366">composes</text></g><!--link n_plane_workflow to n_plane_tool--><g class="link" data-entity-1="ent0001" data-entity-2="ent0040" data-link-type="dependency" data-source-line="84" id="lnk58"><path d="M248.8635,206.4727 C246.2485,209.6113 243.7304,212.7439 241.3082,215.8712 C236.4639,222.1258 232.0034,228.3591 227.9191,234.5764 C219.7505,247.0111 213.087,259.382 207.8684,271.732 C197.4313,296.432 192.7738,321.0483 193.415,345.9233 C194.6975,395.6733 217.175,446.4583 257,501.0183 C394.56,689.4683 1097.5,650.6983 1257,820.9883 C1259.8913,824.0758 1262.3609,827.5336 1264.4688,831.2268 C1265.5227,833.0733 1264.4263,830.4228 1265.3067,832.3701" fill="none" id="n_plane_workflow-to-n_plane_tool" style="stroke:#475569;stroke-width:1;stroke-dasharray:7,7;"/><polygon fill="#475569" points="1267.3665,836.9261,1267.3037,827.0775,1265.3067,832.3701,1260.0141,830.3732,1267.3665,836.9261" style="stroke:#475569;stroke-width:1;stroke-linejoin:miter;stroke-miterlimit:10;"/><text fill="#000000" font-family="sans-serif" font-size="13" lengthAdjust="spacing" textLength="63.4448" x="280.04" y="522.5866">composes</text></g><!--link n_plane_workflow to n_plane_manual_tool--><g class="link" data-entity-1="ent0001" data-entity-2="ent0045" data-link-type="dependency" data-source-line="85" id="lnk59"><path d="M751.0147,134.8347 C751.0424,134.8661 751.0701,134.8975 751.0979,134.9289 C751.1535,134.9917 751.2094,135.0544 751.2654,135.1169 C751.4898,135.3673 751.7181,135.6162 751.9503,135.863 C752.4146,136.3565 752.8945,136.8416 753.3892,137.3136 C755.3681,139.2014 757.585,140.8783 760,142.0383 C824.37,172.9583 1330.81,166.3683 1402,172.0383 C1601.96,187.9783 2299,72.6883 2299,273.2783 C2299,273.2783 2299,273.2783 2299,899.2383 C2299,932.9383 2291.005,969.9208 2282.885,998.7908 C2280.855,1006.0083 2278.8172,1012.7188 2276.8945,1018.7441 C2275.9332,1021.7568 2276.5911,1019.8579 2275.7027,1022.5058" fill="none" id="n_plane_workflow-to-n_plane_manual_tool" style="stroke:#475569;stroke-width:1;stroke-dasharray:7,7;"/><polygon fill="#475569" points="2274.1123,1027.2462,2280.7672,1019.9859,2275.7027,1022.5058,2273.1827,1017.4413,2274.1123,1027.2462" style="stroke:#475569;stroke-width:1;stroke-linejoin:miter;stroke-miterlimit:10;"/><text fill="#000000" font-family="sans-serif" font-size="13" lengthAdjust="spacing" textLength="63.4448" x="2300" y="616.3266">composes</text></g><g class="legend" data-source-line="92"><rect fill="#DDDDDD" height="75.9531" rx="7.5" ry="7.5" style="stroke:#000000;stroke-width:1;" width="338.542" x="2021.9028" y="1112.9683"/><text fill="#000000" font-family="sans-serif" font-size="14" lengthAdjust="spacing" textLength="248.5957" x="2026.9028" y="1131.5034">kernel = top-level lifecycle authority</text><text fill="#000000" font-family="sans-serif" font-size="14" lengthAdjust="spacing" textLength="292.8242" x="2026.9028" y="1147.9917">review components = read-only evaluators</text><text fill="#000000" font-family="sans-serif" font-size="14" lengthAdjust="spacing" textLength="280.2324" x="2026.9028" y="1164.48">manual tools = explicit user request only</text><text fill="#000000" font-family="sans-serif" font-size="14" lengthAdjust="spacing" textLength="328.542" x="2026.9028" y="1180.9683">internal runtime support is intentionally omitted</text></g><?plantuml-src ZLTDRzms4BthLn3E8IuGRIvDFnC3ILgtG5iaW7ih2e8hpMfPKwH2KbvlW_xtpf2YLkHg0v_iVMyUoHdE34VFsI-WmGeFBTjPqxF6Q6z5uzrBTo-LSXjlUlKZQmtJnZDefMVR8ziBtMugBxq2TaTsxACI6Xpxy03sGSAXycPWth2jyRW0QwM5nakZArnL3yAAdhczQCr1wexjX7AmO0RHt8iExlmHboUXq9rQ6horrXpU6sKiU_RrjwzUVVFzWfm5x7F5s3jSgxDcrEraV_lTxTlRzyGOsuBDL_clggRDsTMTGLz0TfhzAYpwvjXlW7yLkpuOUxzJvl3L5HEEQJwGxpoXxFNh-s1uSnDES3hFbT127V-5Uh3c7qGd-OJo2SqbZJ8EwWO3ti5a7o0UeTou1OVdpQqZjcek-q513zhdYXbU5P6pkJqXgwOMA1LouuYjchkZRcflHx-VR0dW0SWl1ky2KoccN7O5RcAAi9lH3wEl7UMJcmGHun7BpKSAk6anC-jO0vDafAW7d4SyEzNF3qADmiy7OzVHLQoeVZ0Qm-doV4cHI7HvwYbwyVxow4LirNo-l72KN9Ppgt8wMYuY97Fq9-aQEIY9BfxVG7iYozmVP9sQ2ru5jPpkc2fWa3nnF765t3PxwV7tQB5-XFTOOkbYbXnFN5b6W6cxD9oB2ObiXLm8s6fikM40B-m4Zz2CNcmLr0RzmJ_PqHqe_C_OjD9ipQDrxaooBkfMxwp0C8rnIM-bE1Llnl78vNAyg6v455EhaLGlk08aVI9v8ZcHHJtPJcY9VQmrpLnF4yO9A-gQYgNkCIUIrm7X0SbDFJWVwYxFZmc-a1hU6BNg2n657yj4_cYKR8uhIJn4udFPN1z0cI7qIuTWAsphvYOxStpcSdbdwcwKBL1j95bd-0ahBibqNOn4ljE4Nze5Mz3vDWXUt6Sm1x1k3tX3PxeJTrb-z7iC-haqu1TbdqQXf3-UUJVXbxnpM2oMT9YYjhL2phqvCVp4N91E0Inr4ro8rkFovP0uCxYQoklyaCXmggt58PS9-IVcwqewKXgNoOZl43pMqtjN8q73IYgNGAR7a2Uoo6RJu9HIzwFoabfElHsbQbCw1vBF90zauMOlB0uEfkzb6cG2n2EK6nzWM-_0D-bbnzyy_Cxy_qDel7z6ON3i6Xxn7MbmtiHtr-9YdqRi0ineTSpVqJweLgFKIL_JM4QbFzUSz7p6rbnoc8HkdxaK8JhhsR1N_xMNRGlwx_gc74EgSYnPiosdWEhYUB2cFZstrSeBlAQ8lQqgMjsQ9GMqod9mpMeH_PNeR3PdKM4_n8a8VtxP_Ym0JnKk8l1KoHI6fvg7Q3pLU9cV2qs5trD0IMOEchgi73WXc94VCCNPl5GSDScAARc3veX30iF-w663jhzJYsP3_FWA8vJSZhXk3zX_M_U2OH3nnXfumV0p9xgvgK2tB6nMAUZeXvNTdaesVhYmD_ZfDjIA7hN5fW87SKFDCbHDCTkYne9eQwfFt3JCmiPIWKN_cGzL_OPTBckqbPecAhIse_QoHqV7OJ3MC-a2fsbm5GgtCDXZyAELN8a-_0y0?></g></svg>